<svg xmlns="http://www.w3.org/2000/svg" width="171.5" height="159.064" viewBox="0 0 171.5 159.064">
  <g id="metamask.c879a582" transform="translate(-31.3 -35)">
    <path id="Path_1" data-name="Path 1" d="M241.128,35.5,174.6,84.912l12.3-29.152Z" transform="translate(-47.32)" fill="#e2761b" stroke="#e2761b" stroke-linecap="round" stroke-linejoin="round" stroke-width="1"/>
    <g id="Group_8" data-name="Group 8" transform="translate(33.204 35.5)">
      <path id="Path_2" data-name="Path 2" d="M44.4,35.5l65.994,49.88-11.7-29.62Z" transform="translate(-37.379 -35.5)" fill="#e4761b" stroke="#e4761b" stroke-linecap="round" stroke-linejoin="round" stroke-width="1"/>
      <path id="Path_3" data-name="Path 3" d="M229.519,206.8,211.8,233.946l37.911,10.431,10.9-36.975Z" transform="translate(-92.851 -92.264)" fill="#e4761b" stroke="#e4761b" stroke-linecap="round" stroke-linejoin="round" stroke-width="1"/>
      <path id="Path_4" data-name="Path 4" d="M33.9,207.4l10.832,36.975,37.911-10.431L64.924,206.8Z" transform="translate(-33.9 -92.264)" fill="#e4761b" stroke="#e4761b" stroke-linecap="round" stroke-linejoin="round" stroke-width="1"/>
      <path id="Path_5" data-name="Path 5" d="M98.364,126.9,87.8,142.88l37.644,1.672L124.106,104.1Z" transform="translate(-51.761 -58.232)" fill="#e4761b" stroke="#e4761b" stroke-linecap="round" stroke-linejoin="round" stroke-width="1"/>
      <path id="Path_6" data-name="Path 6" d="M201.546,126.668,175.469,103.4l-.869,40.92,37.577-1.672Z" transform="translate(-80.524 -58)" fill="#e4761b" stroke="#e4761b" stroke-linecap="round" stroke-linejoin="round" stroke-width="1"/>
      <path id="Path_7" data-name="Path 7" d="M106.8,234.377l22.6-11.032L109.876,208.1Z" transform="translate(-58.057 -92.695)" fill="#e4761b" stroke="#e4761b" stroke-linecap="round" stroke-linejoin="round" stroke-width="1"/>
      <path id="Path_8" data-name="Path 8" d="M177.9,223.345l22.666,11.032L197.424,208.1Z" transform="translate(-81.618 -92.695)" fill="#e4761b" stroke="#e4761b" stroke-linecap="round" stroke-linejoin="round" stroke-width="1"/>
    </g>
    <g id="Group_9" data-name="Group 9" transform="translate(81.947 166.15)">
      <path id="Path_9" data-name="Path 9" d="M200.566,241.932,177.9,230.9l1.805,14.777-.2,6.218Z" transform="translate(-130.361 -230.9)" fill="#d7c1b3" stroke="#d7c1b3" stroke-linecap="round" stroke-linejoin="round" stroke-width="1"/>
      <path id="Path_10" data-name="Path 10" d="M106.8,241.932l21.062,9.963-.134-6.218L129.4,230.9Z" transform="translate(-106.8 -230.9)" fill="#d7c1b3" stroke="#d7c1b3" stroke-linecap="round" stroke-linejoin="round" stroke-width="1"/>
    </g>
    <path id="Path_11" data-name="Path 11" d="M129.455,187.734l-18.855-5.55,13.306-6.085Z" transform="translate(-26.112 -46.591)" fill="#233447" stroke="#233447" stroke-linecap="round" stroke-linejoin="round" stroke-width="1"/>
    <path id="Path_12" data-name="Path 12" d="M179.7,187.734l5.55-11.634,13.373,6.085Z" transform="translate(-49.01 -46.591)" fill="#233447" stroke="#233447" stroke-linecap="round" stroke-linejoin="round" stroke-width="1"/>
    <g id="Group_10" data-name="Group 10" transform="translate(64.228 120.148)">
      <path id="Path_13" data-name="Path 13" d="M98.019,233.946l3.209-27.146-20.928.6Z" transform="translate(-80.3 -176.912)" fill="#cd6116" stroke="#cd6116" stroke-linecap="round" stroke-linejoin="round" stroke-width="1"/>
      <path id="Path_14" data-name="Path 14" d="M207,206.8l3.209,27.146L227.928,207.4Z" transform="translate(-122.285 -176.912)" fill="#cd6116" stroke="#cd6116" stroke-linecap="round" stroke-linejoin="round" stroke-width="1"/>
      <path id="Path_15" data-name="Path 15" d="M212.177,162.1,174.6,163.772l3.477,19.323,5.55-11.634L197,177.545Z" transform="translate(-111.548 -162.1)" fill="#cd6116" stroke="#cd6116" stroke-linecap="round" stroke-linejoin="round" stroke-width="1"/>
      <path id="Path_16" data-name="Path 16" d="M103.045,177.545l13.373-6.085,5.483,11.634,3.544-19.323L87.8,162.1Z" transform="translate(-82.785 -162.1)" fill="#cd6116" stroke="#cd6116" stroke-linecap="round" stroke-linejoin="round" stroke-width="1"/>
    </g>
    <g id="Group_11" data-name="Group 11" transform="translate(69.243 120.148)">
      <path id="Path_17" data-name="Path 17" d="M87.8,162.1l15.78,30.757-.535-15.312Z" transform="translate(-87.8 -162.1)" fill="#e4751f" stroke="#e4751f" stroke-linecap="round" stroke-linejoin="round" stroke-width="1"/>
      <path id="Path_18" data-name="Path 18" d="M207.769,177.545l-.669,15.312L222.946,162.1Z" transform="translate(-127.333 -162.1)" fill="#e4751f" stroke="#e4751f" stroke-linecap="round" stroke-linejoin="round" stroke-width="1"/>
      <path id="Path_19" data-name="Path 19" d="M142.344,164.6,138.8,183.923l4.413,22.8,1-30.021Z" transform="translate(-104.7 -162.928)" fill="#e4751f" stroke="#e4751f" stroke-linecap="round" stroke-linejoin="round" stroke-width="1"/>
      <path id="Path_20" data-name="Path 20" d="M173.705,164.6,171.9,176.635l.8,30.088,4.48-22.8Z" transform="translate(-115.668 -162.928)" fill="#e4751f" stroke="#e4751f" stroke-linecap="round" stroke-linejoin="round" stroke-width="1"/>
    </g>
    <path id="Path_21" data-name="Path 21" d="M177.58,190.75l-4.48,22.8,3.209,2.206,19.524-15.245L196.5,185.2Z" transform="translate(-46.823 -49.606)" fill="#f6851b" stroke="#f6851b" stroke-linecap="round" stroke-linejoin="round" stroke-width="1"/>
    <path id="Path_22" data-name="Path 22" d="M110.6,185.2l.535,15.312,19.524,15.245,3.209-2.206-4.413-22.8Z" transform="translate(-26.112 -49.606)" fill="#f6851b" stroke="#f6851b" stroke-linecap="round" stroke-linejoin="round" stroke-width="1"/>
    <path id="Path_23" data-name="Path 23" d="M155.944,257.363l.2-6.218-1.672-1.471H129.266l-1.538,1.471.134,6.218L106.8,247.4l7.355,6.018,14.91,10.364h25.608l14.977-10.364,7.355-6.018Z" transform="translate(-24.853 -70.218)" fill="#c0ad9e" stroke="#c0ad9e" stroke-linecap="round" stroke-linejoin="round" stroke-width="1"/>
    <path id="Path_24" data-name="Path 24" d="M164.711,229.806,161.5,227.6H142.981l-3.209,2.206L138.1,244.583l1.538-1.471h25.207l1.672,1.471Z" transform="translate(-35.225 -63.657)" fill="#161616" stroke="#161616" stroke-linecap="round" stroke-linejoin="round" stroke-width="1"/>
    <g id="Group_12" data-name="Group 12" transform="translate(31.8 35.5)">
      <path id="Path_25" data-name="Path 25" d="M245.03,88.121l5.683-27.28L242.222,35.5,177.9,83.24l24.739,20.928,34.969,10.23,7.756-9.026-3.343-2.407,5.349-4.881-4.145-3.209,5.349-4.079Z" transform="translate(-80.214 -35.5)" fill="#763d16" stroke="#763d16" stroke-linecap="round" stroke-linejoin="round" stroke-width="1"/>
      <path id="Path_26" data-name="Path 26" d="M31.8,60.841l5.683,27.28L33.873,90.8l5.349,4.079-4.079,3.209,5.349,4.881-3.343,2.407,7.689,9.026,34.969-10.23L104.547,83.24,40.225,35.5Z" transform="translate(-31.8 -35.5)" fill="#763d16" stroke="#763d16" stroke-linecap="round" stroke-linejoin="round" stroke-width="1"/>
    </g>
    <path id="Path_27" data-name="Path 27" d="M247.285,148.43,212.315,138.2l10.631,15.98L207.1,184.937l20.861-.267h31.091Z" transform="translate(-58.09 -34.032)" fill="#f6851b" stroke="#f6851b" stroke-linecap="round" stroke-linejoin="round" stroke-width="1"/>
    <path id="Path_28" data-name="Path 28" d="M80.5,138.2,45.534,148.43,33.9,184.67H64.924l20.794.267L69.939,154.18Z" transform="translate(-0.696 -34.032)" fill="#f6851b" stroke="#f6851b" stroke-linecap="round" stroke-linejoin="round" stroke-width="1"/>
    <path id="Path_29" data-name="Path 29" d="M158.363,131.86l2.206-38.58L170.732,65.8H125.6l10.029,27.481,2.34,38.58.8,12.169.067,29.955H157.36l.134-29.955Z" transform="translate(-31.083 -10.041)" fill="#f6851b" stroke="#f6851b" stroke-linecap="round" stroke-linejoin="round" stroke-width="1"/>
  </g>
</svg>
