<svg id="Layer_1" data-name="Layer 1" xmlns="http://www.w3.org/2000/svg" viewBox="0 0 230.72 258.5"><defs><style>.cls-1{fill:#182443;}</style></defs><title>NVEST ICON</title><path class="cls-1" d="M30,44.34V216.19H200.75V44.34Zm154.23,86h-40.9l5.41,6.28h35.49v6.78H154.56l.87,1c1.5,1.7,3,3.42,4.55,5.15h24.25v6.78H166c1.83,2.07,3.67,4.14,5.5,6.22h12.76V177h0v.94h0v21.56H145.51L114,162.55H46.52v-6.22h62.17l-5.78-6.78H46.52v-6.22H97.6l-5.79-6.77H46.52v-6.22h40l-5.78-6.78H46.52v-6.21H75.41L47.46,84.61l-.94-1.1V62.78H85.23l7.47,8.68L104,84.61l34.31,39.9v-1h45.91Zm0-45.73v32.74H138.32V62.78h45.91V84.61Z"/></svg>