<svg xmlns="http://www.w3.org/2000/svg" width="192.061" height="132.614" viewBox="0 0 192.061 132.614">
  <g id="icons8-stripe" transform="translate(-3 -9)">
    <path id="Path_42" data-name="Path 42" d="M180.27,141.614H17.79A14.46,14.46,0,0,1,3,127.2V23.755A14.744,14.744,0,0,1,17.79,9H180.27a14.755,14.755,0,0,1,14.791,14.755V127.2A14.471,14.471,0,0,1,180.27,141.614Z" fill="#03a9f4"/>
    <path id="Path_43" data-name="Path 43" d="M143.35,47.129c.3-5.037,1.607-7.377,4.233-7.377,2.5,0,3.876,2.411,4.055,7.377Zm18.773,3c0-5.627-1.232-10.075-3.572-13.183-2.465-3.2-6.163-4.805-10.789-4.805-9.539,0-15.523,7.074-15.523,18.4,0,6.324,1.572,11.093,4.733,14.094,2.822,2.733,6.877,4.09,12.039,4.09,4.787,0,9.218-1.143,12.04-3l-1.233-7.717a19.683,19.683,0,0,1-9.574,2.34,7,7,0,0,1-4.787-1.411c-1.2-1-1.858-2.608-2.09-4.912h18.6A37.44,37.44,0,0,0,162.124,50.13Zm-45.246,7.306A4.722,4.722,0,0,1,112.8,60.1a7.238,7.238,0,0,1-3.073-.679V42.413a6.4,6.4,0,0,1,4.323-2.233c2.876,0,4.3,3.108,4.3,9.217A17.85,17.85,0,0,1,116.878,57.436Zm9.4-22.043a10,10,0,0,0-8.431-3.912c-3.269,0-6.145,1.376-8.842,4.287l-.661-3.591H98.318V82.444l11.343-1.894.071-12.807a17.79,17.79,0,0,0,5.18.84,13.5,13.5,0,0,0,10.218-4.234c3.055-3.34,4.555-8.5,4.555-15.362C129.685,42.931,128.56,38.323,126.273,35.393ZM82.438,32.178H93.745V68.725H82.438Zm5.752-3.537a6.02,6.02,0,1,0-6.056-6A5.992,5.992,0,0,0,88.19,28.641ZM77.579,31.677a6.8,6.8,0,0,0-6.823,4.716l-.7-4.2H60.145v36.53H71.488V44.718c1.429-1.75,3.43-2.376,6.234-2.376a12.192,12.192,0,0,1,2,.125v-10.5A10.458,10.458,0,0,0,77.579,31.677ZM55.7,40.627l1.411-8.449H49.785V21.907L40.05,23.532l-1.411,8.645-3.43.554-1.268,7.9h4.68V57.186c0,4.3,1.09,7.323,3.3,9.146,1.929,1.536,4.626,2.251,8.431,2.251a19.951,19.951,0,0,0,5.931-.84V58.775A13.522,13.522,0,0,1,53,59.311c-2.2,0-3.215-1.143-3.215-3.769V40.609H55.7ZM23.009,46.093c-3.233-1.215-5.109-2.162-5.109-3.68,0-1.25,1.036-1.983,2.947-1.983A21.756,21.756,0,0,1,30.1,42.913l1.376-8.36a25.765,25.765,0,0,0-11.164-2.411c-3.841,0-7.02,1-9.217,2.84a10.045,10.045,0,0,0-3.662,8.164c0,6.162,3.769,8.77,9.9,10.985,3.93,1.411,5.287,2.411,5.287,3.966,0,1.483-1.25,2.358-3.644,2.358A25.31,25.31,0,0,1,8.325,57.239L7.039,65.706a27.7,27.7,0,0,0,12.575,3.019c4.055,0,7.413-.964,9.61-2.769,2.59-1.983,3.859-4.93,3.859-8.717C33.083,50.916,29.225,48.29,23.009,46.093Z" transform="translate(14.431 27.16)" fill="#fff"/>
  </g>
</svg>
